# xmcd
#
# Track frame offsets:
# 150
# 21582
# 41335
# 58965
# 75385
# 97025
# 110847
# 130947
# 146247
# 167587
# 185975
# 206977
# 225985
# 242207
#
# Disc length: 3499 seconds
#
#
# Revision: 0
# Processed by: cddbd v1.5.1PL0 Copyright (c) Steve Scherf et al.
# Submitted via: FreeRIP 2.90 
#
DISCID=d20da90e
DTITLE=IBRAHIM TATLISES - Tek Tek
DYEAR=2004
DGENRE=Ballad
TTITLE0=Tabi Tabi
TTITLE1=Seni sana birakmam
TTITLE2=Al al al
TTITLE3=Su ver leylam
TTITLE4=Usta
TTITLE5=Suryani
TTITLE6=Tek tek
TTITLE7=Ne sevdalar yasadim
TTITLE8=Haram
TTITLE9=Adim Ibrahim
TTITLE10=Sarhos
TTITLE11=Yanarim
TTITLE12=Bir oda yaptirdim
TTITLE13=Gun ola harman ola
EXTD=
EXTT0=
EXTT1=
EXTT2=
EXTT3=
EXTT4=
EXTT5=
EXTT6=
EXTT7=
EXTT8=
EXTT9=
EXTT10=
EXTT11=
EXTT12=
EXTT13=
PLAYORDER=
